<mxfile host="app.diagrams.net" agent="Mozilla/5.0 (Windows NT 10.0; Win64; x64) AppleWebKit/537.36 (KHTML, like Gecko) Chrome/134.0.0.0 Safari/537.36 Edg/134.0.0.0" version="26.1.0">
  <diagram name="第 1 页" id="hFESBxfqleNxEhK8VXsM">
    <mxGraphModel dx="864" dy="478" grid="1" gridSize="10" guides="1" tooltips="1" connect="1" arrows="1" fold="1" page="1" pageScale="1" pageWidth="1600" pageHeight="900" math="0" shadow="0">
      <root>
        <mxCell id="0" />
        <mxCell id="1" parent="0" />
        <mxCell id="UW59TpsnFUn9pXLaUZdh-2" value="" style="group" vertex="1" connectable="0" parent="1">
          <mxGeometry x="130" y="140" width="350" height="110" as="geometry" />
        </mxCell>
        <mxCell id="UW59TpsnFUn9pXLaUZdh-3" value="Left View" style="shape=cube;whiteSpace=wrap;html=1;boundedLbl=1;backgroundOutline=1;darkOpacity=0.05;darkOpacity2=0.1;flipH=1;size=10;fillColor=#ffe6cc;strokeColor=#d79b00;align=center;verticalAlign=middle;fontFamily=Times New Roman;fontSize=25;fontColor=default;" vertex="1" parent="UW59TpsnFUn9pXLaUZdh-2">
          <mxGeometry x="30" width="320" height="80" as="geometry" />
        </mxCell>
        <mxCell id="UW59TpsnFUn9pXLaUZdh-4" value="Back View" style="shape=cube;whiteSpace=wrap;html=1;boundedLbl=1;backgroundOutline=1;darkOpacity=0.05;darkOpacity2=0.1;flipH=1;size=10;fillColor=#ffe6cc;strokeColor=#d79b00;align=center;verticalAlign=middle;fontFamily=Times New Roman;fontSize=25;fontColor=default;" vertex="1" parent="UW59TpsnFUn9pXLaUZdh-2">
          <mxGeometry x="20" y="10" width="320" height="80" as="geometry" />
        </mxCell>
        <mxCell id="UW59TpsnFUn9pXLaUZdh-5" value="" style="shape=cube;whiteSpace=wrap;html=1;boundedLbl=1;backgroundOutline=1;darkOpacity=0.05;darkOpacity2=0.1;flipH=1;size=10;fillColor=#ffe6cc;strokeColor=#d79b00;fontSize=25;fontFamily=Times New Roman;" vertex="1" parent="UW59TpsnFUn9pXLaUZdh-2">
          <mxGeometry x="10" y="20" width="320" height="80" as="geometry" />
        </mxCell>
        <mxCell id="UW59TpsnFUn9pXLaUZdh-6" value="" style="shape=cube;whiteSpace=wrap;html=1;boundedLbl=1;backgroundOutline=1;darkOpacity=0.05;darkOpacity2=0.1;flipH=1;size=10;fillColor=#ffe6cc;strokeColor=#d79b00;fontFamily=Times New Roman;fontSize=25;" vertex="1" parent="UW59TpsnFUn9pXLaUZdh-2">
          <mxGeometry y="30" width="320" height="80" as="geometry" />
        </mxCell>
        <mxCell id="UW59TpsnFUn9pXLaUZdh-12" value="" style="group" vertex="1" connectable="0" parent="1">
          <mxGeometry x="125" y="310" width="190" height="70" as="geometry" />
        </mxCell>
        <mxCell id="UW59TpsnFUn9pXLaUZdh-13" value="" style="shape=cube;whiteSpace=wrap;html=1;boundedLbl=1;backgroundOutline=1;darkOpacity=0.05;darkOpacity2=0.1;flipH=1;size=10;fillColor=#ffe6cc;strokeColor=#d79b00;fontFamily=Times New Roman;fontSize=25;" vertex="1" parent="UW59TpsnFUn9pXLaUZdh-12">
          <mxGeometry x="30" width="160" height="40" as="geometry" />
        </mxCell>
        <mxCell id="UW59TpsnFUn9pXLaUZdh-14" value="" style="shape=cube;whiteSpace=wrap;html=1;boundedLbl=1;backgroundOutline=1;darkOpacity=0.05;darkOpacity2=0.1;flipH=1;size=10;fillColor=#ffe6cc;strokeColor=#d79b00;fontFamily=Times New Roman;fontSize=25;" vertex="1" parent="UW59TpsnFUn9pXLaUZdh-12">
          <mxGeometry x="20" y="10" width="160" height="40" as="geometry" />
        </mxCell>
        <mxCell id="UW59TpsnFUn9pXLaUZdh-15" value="" style="shape=cube;whiteSpace=wrap;html=1;boundedLbl=1;backgroundOutline=1;darkOpacity=0.05;darkOpacity2=0.1;flipH=1;size=10;fillColor=#ffe6cc;strokeColor=#d79b00;fontFamily=Times New Roman;fontSize=25;" vertex="1" parent="UW59TpsnFUn9pXLaUZdh-12">
          <mxGeometry x="10" y="20" width="160" height="40" as="geometry" />
        </mxCell>
        <mxCell id="UW59TpsnFUn9pXLaUZdh-16" value="" style="shape=cube;whiteSpace=wrap;html=1;boundedLbl=1;backgroundOutline=1;darkOpacity=0.05;darkOpacity2=0.1;flipH=1;size=10;fillColor=#ffe6cc;strokeColor=#d79b00;fontFamily=Times New Roman;fontSize=25;" vertex="1" parent="UW59TpsnFUn9pXLaUZdh-12">
          <mxGeometry y="30" width="160" height="40" as="geometry" />
        </mxCell>
        <mxCell id="UW59TpsnFUn9pXLaUZdh-22" value="&lt;i style=&quot;font-family: &amp;quot;Times New Roman&amp;quot;; font-size: 25px;&quot;&gt;V&lt;sub&gt;ctx, 2&lt;/sub&gt;&lt;/i&gt;" style="text;html=1;align=center;verticalAlign=middle;resizable=0;points=[];autosize=1;strokeColor=none;fillColor=none;" vertex="1" parent="1">
          <mxGeometry x="50" y="470" width="80" height="50" as="geometry" />
        </mxCell>
        <mxCell id="UW59TpsnFUn9pXLaUZdh-23" value="" style="group" vertex="1" connectable="0" parent="1">
          <mxGeometry x="125" y="470" width="110" height="50" as="geometry" />
        </mxCell>
        <mxCell id="UW59TpsnFUn9pXLaUZdh-18" value="" style="shape=cube;whiteSpace=wrap;html=1;boundedLbl=1;backgroundOutline=1;darkOpacity=0.05;darkOpacity2=0.1;flipH=1;size=10;fillColor=#ffe6cc;strokeColor=#d79b00;fontFamily=Times New Roman;fontSize=25;" vertex="1" parent="UW59TpsnFUn9pXLaUZdh-23">
          <mxGeometry x="30" width="80" height="20" as="geometry" />
        </mxCell>
        <mxCell id="UW59TpsnFUn9pXLaUZdh-19" value="" style="shape=cube;whiteSpace=wrap;html=1;boundedLbl=1;backgroundOutline=1;darkOpacity=0.05;darkOpacity2=0.1;flipH=1;size=10;fillColor=#ffe6cc;strokeColor=#d79b00;fontFamily=Times New Roman;fontSize=25;" vertex="1" parent="UW59TpsnFUn9pXLaUZdh-23">
          <mxGeometry x="20" y="10" width="80" height="20" as="geometry" />
        </mxCell>
        <mxCell id="UW59TpsnFUn9pXLaUZdh-20" value="" style="shape=cube;whiteSpace=wrap;html=1;boundedLbl=1;backgroundOutline=1;darkOpacity=0.05;darkOpacity2=0.1;flipH=1;size=10;fillColor=#ffe6cc;strokeColor=#d79b00;fontFamily=Times New Roman;fontSize=25;" vertex="1" parent="UW59TpsnFUn9pXLaUZdh-23">
          <mxGeometry x="10" y="20" width="80" height="20" as="geometry" />
        </mxCell>
        <mxCell id="UW59TpsnFUn9pXLaUZdh-21" value="" style="shape=cube;whiteSpace=wrap;html=1;boundedLbl=1;backgroundOutline=1;darkOpacity=0.05;darkOpacity2=0.1;flipH=1;size=10;fillColor=#ffe6cc;strokeColor=#d79b00;fontFamily=Times New Roman;fontSize=25;" vertex="1" parent="UW59TpsnFUn9pXLaUZdh-23">
          <mxGeometry y="30" width="80" height="20" as="geometry" />
        </mxCell>
        <mxCell id="UW59TpsnFUn9pXLaUZdh-25" value="&lt;i style=&quot;font-family: &amp;quot;Times New Roman&amp;quot;; font-size: 25px;&quot;&gt;V&lt;sub&gt;ctx, 1&lt;/sub&gt;&lt;/i&gt;" style="text;html=1;align=center;verticalAlign=middle;resizable=0;points=[];autosize=1;strokeColor=none;fillColor=none;" vertex="1" parent="1">
          <mxGeometry x="50" y="320" width="80" height="50" as="geometry" />
        </mxCell>
        <mxCell id="UW59TpsnFUn9pXLaUZdh-26" value="&lt;i style=&quot;font-family: &amp;quot;Times New Roman&amp;quot;; font-size: 25px;&quot;&gt;V&lt;sub&gt;ctx, 0&lt;/sub&gt;&lt;/i&gt;" style="text;html=1;align=center;verticalAlign=middle;resizable=0;points=[];autosize=1;strokeColor=none;fillColor=none;" vertex="1" parent="1">
          <mxGeometry x="50" y="170" width="80" height="50" as="geometry" />
        </mxCell>
      </root>
    </mxGraphModel>
  </diagram>
</mxfile>
